<svg xmlns="http://www.w3.org/2000/svg" width="24" height="24" viewBox="0 0 24 24"><g><g><g/><g><path fill="#36ab32" d="M12 2a8 8 0 0 0-8 8c0 3.098 2.016 6.104 4.226 8.437A29.418 29.418 0 0 0 12 21.773a29.412 29.412 0 0 0 3.774-3.335C17.984 16.103 20 13.097 20 10a8 8 0 0 0-8-8zm-.555 21.832l-.003-.002-.007-.005-.023-.015-.082-.057c-.071-.05-.174-.12-.302-.214a31.428 31.428 0 0 1-4.254-3.726C4.484 17.396 2 13.902 2 10a10 10 0 0 1 20 0c0 3.902-2.484 7.396-4.774 9.813a31.433 31.433 0 0 1-4.254 3.726 18.887 18.887 0 0 1-.384.27l-.023.016-.007.005-.002.001s0 .336-.165.09a.999.999 0 0 0 .164-.089L12 23l-.555.832c.283.189.64-.117.946-.247L12 23l-.555.832z"/></g><g><path fill="#36ab32" d="M14 10a2 2 0 1 1-4 0 2 2 0 0 1 4 0zm-2 4a4 4 0 1 0 0-8 4 4 0 0 0 0 8z"/></g></g></g></svg>